<svg width="4494" height="1064" viewBox="0 0 4494 1064" fill="none" xmlns="http://www.w3.org/2000/svg">
<g clip-path="url(#clip0_1_9)">
<path d="M2170.72 614.929V1051.61H2000.93V623.59C2000.93 501.297 1919.47 462.409 1850.37 462.409C1781.27 462.409 1686.24 501.383 1686.24 614.929V1051.61H1516.45V614.929C1516.45 528.232 1463.28 462.409 1365.89 462.409C1282.17 462.409 1201.76 527.106 1201.76 614.929V1051.61H1031.97V313.7H1183.14L1192.27 363.847C1339.61 256.191 1513.93 293.607 1605.48 400.916C1671.18 334.227 1757.69 300.189 1861.34 300.189C2038.96 300.189 2170.81 426.639 2170.81 614.929H2170.72Z" fill="#FFA900"/>
<path d="M3554.19 316.299C3551.84 316.299 3549.58 316.905 3547.49 317.944L3502.76 341.675C3496.75 344.88 3490.05 346.525 3483.27 346.525C3476.48 346.525 3469.78 344.88 3463.77 341.675L3419.04 317.944C3416.95 316.818 3414.69 316.299 3412.34 316.299C3404.51 316.299 3398.07 322.708 3398.07 330.503V1051.18H3568.38V330.503C3568.38 322.708 3561.94 316.299 3554.11 316.299H3554.19Z" fill="white"/>
<path d="M3574.3 49.5407L3496.93 5.10997C3485.18 -1.64558 3470.65 -1.64558 3458.98 5.10997L3381.53 49.5407C3369.78 56.2963 3362.56 68.8547 3362.56 82.2792V171.227C3362.56 184.652 3369.87 197.21 3381.53 203.966L3458.98 248.483C3464.82 251.861 3471.43 253.507 3477.96 253.507C3484.48 253.507 3491.1 251.861 3496.93 248.483L3574.3 203.966C3586.04 197.21 3593.27 184.738 3593.27 171.227V82.2792C3593.27 68.8547 3585.96 56.2963 3574.3 49.5407Z" fill="white"/>
<path d="M637.736 449.678L403.023 315.086C368.386 294.82 325.395 294.82 290.758 315.086L56.0454 449.678C21.0605 469.165 -0.435245 506.147 -0.000108289 546.161V817.856C-0.435245 857.783 21.0605 894.852 56.1325 914.339L290.845 1048.93C325.482 1069.2 368.473 1069.2 403.11 1048.93L637.823 914.339C672.895 894.852 694.39 857.869 693.955 817.856V546.248C693.868 506.407 672.459 469.685 637.823 449.764L637.736 449.678ZM226.184 782.172C226.184 802.266 209.474 818.548 188.936 818.548C168.398 818.548 151.775 802.266 151.775 782.172V649.4C151.775 629.393 168.398 613.024 188.936 613.024C209.562 613.024 226.184 629.306 226.184 649.4V782.172ZM331.313 745.19C331.313 765.197 314.69 781.48 294.065 781.48C273.44 781.48 256.817 765.197 256.817 745.19V568.246C256.817 548.153 273.527 531.784 294.065 531.784C314.603 531.784 331.313 548.066 331.313 568.246V745.19ZM436.529 826.517C436.529 846.61 419.819 862.893 399.281 862.893C378.742 862.893 362.12 846.61 362.12 826.517V618.826C362.12 598.82 378.742 582.45 399.281 582.45C419.819 582.45 436.529 598.733 436.529 618.826V826.517ZM542.093 745.19C542.093 765.197 525.383 781.48 504.845 781.48C484.306 781.48 467.684 765.197 467.684 745.19V537.5C467.684 517.407 484.306 501.037 504.845 501.037C525.383 501.037 542.093 517.32 542.093 537.5V745.19Z" fill="#FFA900"/>
<path d="M3044.3 681.272C3044.3 892.513 2872.25 1063.74 2659.99 1063.74C2447.73 1063.74 2275.68 892.513 2275.68 681.272V16.8024H2436.24V370.516C2499.25 325.479 2576.53 298.89 2660.08 298.89C2872.33 298.89 3044.39 470.117 3044.39 681.358L3044.3 681.272ZM2883.74 681.272C2883.74 558.286 2783.57 458.512 2659.9 458.512C2536.24 458.512 2436.15 558.2 2436.07 681.185C2436.07 804.258 2536.24 903.945 2659.9 903.945C2783.57 903.945 2883.74 804.258 2883.74 681.185V681.272Z" fill="#FFA900"/>
<path d="M3178.67 1054.65C3231.2 1054.65 3273.79 1012.26 3273.79 959.982C3273.79 907.7 3231.2 865.317 3178.67 865.317C3126.14 865.317 3083.55 907.7 3083.55 959.982C3083.55 1012.26 3126.14 1054.65 3178.67 1054.65Z" fill="white"/>
<path d="M4494 681.272C4494 892.513 4315.16 1063.74 4094.54 1063.74C3873.93 1063.74 3695.09 892.513 3695.09 681.272C3695.09 470.031 3873.93 298.804 4094.54 298.804C4315.16 298.804 4494 470.031 4494 681.272ZM4327.17 681.272C4327.17 558.286 4223 458.512 4094.54 458.512C3966.09 458.512 3862.01 558.2 3861.92 681.185C3861.92 804.258 3966.09 903.946 4094.54 903.946C4223 903.946 4327.17 804.258 4327.17 681.185V681.272Z" fill="white"/>
</g>
<defs>
<clipPath id="clip0_1_9">
<rect width="4494" height="1064" fill="white"/>
</clipPath>
</defs>
</svg>
