<svg width="161" height="62" viewBox="0 0 161 62" fill="none" xmlns="http://www.w3.org/2000/svg">
<mask id="mask0_1_422" style="mask-type:luminance" maskUnits="userSpaceOnUse" x="0" y="0" width="161" height="62">
<path d="M161 0H0V62H161V0Z" fill="white"/>
</mask>
<g mask="url(#mask0_1_422)">
<mask id="mask1_1_422" style="mask-type:luminance" maskUnits="userSpaceOnUse" x="0" y="0" width="161" height="62">
<path d="M161 0H0V62H161V0Z" fill="white"/>
</mask>
<g mask="url(#mask1_1_422)">
<path fill-rule="evenodd" clip-rule="evenodd" d="M48.101 22.54V12.4004H51.5119V22.54V25.9199V29.2998V32.6904V49.6006H48.101V32.6904H44.6919V49.6006H41.2809V32.6904H10.5889H7.17795H3.76895V36.0703H7.17795H10.5889H37.8719V39.4502V49.6006H34.4609V39.4502H17.4089V49.6006H13.9979V39.4502H10.5889V49.6006H7.17795V39.4502H3.76895V49.6006H0.356934V32.6904V29.2998V12.4004H3.76895V29.2998H7.17795V12.4004H10.5889V29.2998H41.2809H44.6919H48.101V25.9199H13.9979V22.54V12.4004H17.4089V22.54H34.4609V12.4004H37.8719V22.54H41.2809V12.4004H44.6919V22.54H48.101ZM74.5549 29.5898V25.9199H77.334V36.0205H74.5549V32.3506H66.226V36.0205H63.4479V25.9199H66.226V29.5898H74.5549ZM124.542 32.3506H116.213V36.0205H113.435V25.9199H116.213V29.5898H124.543V25.9199H127.321V29.5898L124.544 32.3506H127.32V36.0205H124.542V32.3506ZM92.144 25.9199H80.1089V36.0205H82.8879V32.3506H91.2199V36.0205H93.9979V25.9199H92.1469H92.144ZM82.8879 29.5898V28.6699H91.2199V29.5898H82.8879ZM110.656 25.9199V28.6797H99.549V33.2598H110.656V36.0205H99.549H98.6219H96.7709V25.9199H98.6219H99.549H110.656ZM143.981 28.6797V25.9199H132.873H131.946H130.095V36.0205H131.946H132.873H143.981V33.2598H132.873V32.3506H143.981V29.5898H132.873V28.6797H143.981ZM157.864 32.3506V25.9199H160.642V36.0205H157.864L149.534 29.5898V36.0205H146.756V25.9199H149.534L157.864 32.3506Z" fill="#3EF2D0"/>
</g>
</g>
</svg>
