<svg width="565" height="26" viewBox="0 0 565 26" fill="none" xmlns="http://www.w3.org/2000/svg">
<mask id="mask0_10_30" style="mask-type:luminance" maskUnits="userSpaceOnUse" x="0" y="0" width="33" height="26">
<path d="M33 0H0V26H33V0Z" fill="white"/>
</mask>
<g mask="url(#mask0_10_30)">
<path d="M5.98102 25.9502V24.2197C5.98102 23.5597 5.58502 23.1299 4.90402 23.1299C4.56402 23.1299 4.19403 23.2401 3.94003 23.6201C3.74203 23.3001 3.45804 23.1299 3.03204 23.1299C2.74804 23.1299 2.46404 23.2203 2.23904 23.5303V23.1904H1.64502V25.9502H2.23904V24.4199C2.23904 23.9299 2.49305 23.7002 2.89005 23.7002C3.28605 23.7002 3.48404 23.9599 3.48404 24.4199V25.9502H4.07904V24.4199C4.07904 23.9299 4.36303 23.7002 4.72903 23.7002C5.12603 23.7002 5.32404 23.9599 5.32404 24.4199V25.9502H5.98102ZM14.799 23.1904H13.835V22.3496H13.24V23.1904H12.702V23.7295H13.24V25C13.24 25.63 13.494 26 14.175 26C14.429 26 14.713 25.9198 14.911 25.7998L14.74 25.2803C14.568 25.4003 14.37 25.4297 14.228 25.4297C13.944 25.4297 13.831 25.2497 13.831 24.9697V23.7295H14.796V23.1904H14.799ZM19.845 23.1299C19.505 23.1299 19.277 23.3003 19.135 23.5303V23.1797H18.541V25.9404H19.135V24.3896C19.135 23.9296 19.333 23.6699 19.703 23.6699C19.816 23.6699 19.958 23.6995 20.073 23.7295L20.245 23.1504C20.126 23.1304 19.958 23.1299 19.845 23.1299ZM12.22 23.4102C11.936 23.2102 11.539 23.1299 11.113 23.1299C10.433 23.1299 9.98004 23.4695 9.98004 24.0195C9.98004 24.4795 10.321 24.7403 10.915 24.8203L11.199 24.8496C11.51 24.9096 11.681 24.9996 11.681 25.1396C11.681 25.3396 11.453 25.4902 11.057 25.4902C10.661 25.4902 10.347 25.3402 10.149 25.2002L9.86502 25.6602C10.175 25.8902 10.601 26 11.027 26C11.82 26 12.276 25.6304 12.276 25.1104C12.276 24.6204 11.906 24.3603 11.341 24.2803L11.057 24.25C10.803 24.22 10.605 24.1602 10.605 23.9902C10.605 23.7902 10.803 23.6699 11.117 23.6699C11.457 23.6699 11.797 23.8204 11.969 23.9004L12.22 23.4102ZM28.036 23.1299C27.696 23.1299 27.468 23.3003 27.326 23.5303V23.1797H26.731V25.9404H27.326V24.3896C27.326 23.9296 27.524 23.6699 27.894 23.6699C28.006 23.6699 28.148 23.6995 28.264 23.7295L28.436 23.1602C28.32 23.1302 28.152 23.1299 28.036 23.1299ZM20.44 24.5703C20.44 25.4003 21.008 26 21.886 26C22.283 26 22.567 25.9204 22.851 25.6904L22.567 25.2002C22.339 25.3702 22.114 25.46 21.857 25.46C21.375 25.46 21.034 25.1103 21.034 24.5703C21.034 24.0503 21.375 23.6997 21.857 23.6797C22.111 23.6797 22.339 23.7597 22.567 23.9297L22.851 23.4502C22.567 23.2102 22.283 23.1299 21.886 23.1299C21.008 23.1299 20.44 23.7303 20.44 24.5703ZM25.939 24.5703V23.1904H25.344V23.5303C25.146 23.2703 24.862 23.1299 24.492 23.1299C23.726 23.1299 23.132 23.7303 23.132 24.5703C23.132 25.4003 23.726 26 24.492 26C24.889 26 25.173 25.8596 25.344 25.5996V25.9502H25.939V24.5703ZM23.756 24.5703C23.756 24.0803 24.066 23.6797 24.578 23.6797C25.06 23.6797 25.4 24.0503 25.4 24.5703C25.4 25.0603 25.06 25.46 24.578 25.46C24.069 25.43 23.756 25.0503 23.756 24.5703ZM16.642 23.1299C15.849 23.1299 15.281 23.6996 15.281 24.5596C15.281 25.4296 15.849 26 16.672 26C17.068 26 17.464 25.8899 17.778 25.6299L17.494 25.1904C17.266 25.3704 16.982 25.4795 16.701 25.4795C16.331 25.4795 15.965 25.3103 15.879 24.8203H17.89C17.89 24.7303 17.89 24.6798 17.89 24.5898C17.917 23.6998 17.405 23.1299 16.642 23.1299ZM16.642 23.6504C17.012 23.6504 17.266 23.8796 17.322 24.3096H15.905C15.961 23.9296 16.216 23.6504 16.642 23.6504ZM31.411 24.5703V22.0898H30.817V23.5303C30.619 23.2703 30.335 23.1299 29.965 23.1299C29.198 23.1299 28.604 23.7303 28.604 24.5703C28.604 25.4003 29.198 26 29.965 26C30.361 26 30.645 25.8596 30.817 25.5996V25.9502H31.411V24.5703ZM29.228 24.5703C29.228 24.0803 29.539 23.6797 30.051 23.6797C30.533 23.6797 30.873 24.0503 30.873 24.5703C30.873 25.0603 30.533 25.46 30.051 25.46C29.539 25.43 29.228 25.0503 29.228 24.5703ZM9.32602 24.5703V23.1904H8.73203V23.5303C8.53403 23.2703 8.25004 23.1299 7.88004 23.1299C7.11404 23.1299 6.51904 23.7303 6.51904 24.5703C6.51904 25.4003 7.11404 26 7.88004 26C8.27604 26 8.56003 25.8596 8.73203 25.5996V25.9502H9.32602V24.5703ZM7.11703 24.5703C7.11703 24.0803 7.42703 23.6797 7.93903 23.6797C8.42203 23.6797 8.76202 24.0503 8.76202 24.5703C8.76202 25.0603 8.42203 25.46 7.93903 25.46C7.42703 25.43 7.11703 25.0503 7.11703 24.5703Z" fill="white"/>
<path d="M20.952 2.21973H12.021V18.5H20.952V2.21973Z" fill="#FF5A00"/>
<path d="M12.616 10.3604C12.616 7.05035 14.149 4.11973 16.5 2.21973C14.769 0.839727 12.586 0 10.205 0C4.56399 0 0 4.64035 0 10.3604C0 16.0804 4.56399 20.71 10.205 20.71C12.586 20.71 14.769 19.88 16.5 18.5C14.145 16.63 12.616 13.6604 12.616 10.3604Z" fill="#EB001B"/>
<path d="M33 10.3604C33 16.0804 28.436 20.71 22.795 20.71C20.414 20.71 18.231 19.88 16.5 18.5C18.881 16.6 20.384 13.6604 20.384 10.3604C20.384 7.05035 18.851 4.11973 16.5 2.21973C18.227 0.839727 20.41 0 22.792 0C28.436 0 33 4.67035 33 10.3604Z" fill="#F79E1B"/>
</g>
<path d="M101.107 0C95.427 0 90.35 2.96016 90.35 8.41016C90.35 14.6702 99.353 15.1 99.353 18.25C99.353 19.57 97.841 20.7598 95.258 20.7598C91.593 20.7598 88.853 19.0996 88.853 19.0996L87.681 24.6104C87.681 24.6104 90.837 26 95.027 26C101.237 26 106.124 22.9104 106.124 17.3604C106.124 10.7504 97.084 10.3302 97.084 7.41016C97.084 6.37016 98.325 5.22949 100.901 5.22949C103.806 5.22949 106.177 6.44043 106.177 6.44043L107.324 1.12012C107.324 1.12012 104.745 0 101.107 0ZM49.138 0.410156L49 1.20996C49 1.20996 51.39 1.64953 53.542 2.51953C56.313 3.52953 56.511 4.10992 56.977 5.91992L62.063 25.5898H68.881L79.385 0.410156H72.582L65.833 17.5303L63.079 3.01953C62.827 1.34953 61.548 0.410156 59.982 0.410156H49.138ZM82.12 0.410156L76.784 25.5898H83.27L88.587 0.410156H82.12ZM118.297 0.410156C116.733 0.410156 115.904 1.24996 115.296 2.70996L105.793 25.5898H112.595L113.911 21.7803H122.198L122.998 25.5898H129L123.764 0.410156H118.297ZM119.181 7.20996L121.198 16.6602H115.796L119.181 7.20996Z" fill="#1434CB"/>
<mask id="mask1_10_30" style="mask-type:luminance" maskUnits="userSpaceOnUse" x="145" y="0" width="26" height="26">
<path d="M171 0H145V26H171V0Z" fill="white"/>
</mask>
<g mask="url(#mask1_10_30)">
<path d="M145 0H170.935V14.04L169.652 16.0498L170.935 17.8398V26H145V12.7695L145.802 11.8496L145 10.96V0Z" fill="#016FD0"/>
<path d="M150.035 18.1201V14.04H154.346L154.809 14.6396L155.287 14.04H170.936V17.8398C170.936 17.8398 170.527 18.1201 170.053 18.1201H161.388L160.867 17.4795V18.1201H159.158V17.0195C159.158 17.0195 158.924 17.1797 158.42 17.1797H157.838V18.1201H155.25L154.788 17.5L154.319 18.1201H150.035Z" fill="white"/>
<path d="M145 10.96L145.972 8.69043H147.654L148.205 9.95996V8.69043H150.295L150.624 9.61035L150.942 8.69043H160.325V9.15039C160.325 9.15039 160.818 8.69043 161.628 8.69043L164.673 8.7002L165.215 9.95996V8.69043H166.964L167.445 9.41016V8.69043H169.21V12.7695H167.445L166.984 12.0498V12.7695H164.414L164.156 12.1299H163.465L163.211 12.7695H161.468C160.77 12.7695 160.325 12.3203 160.325 12.3203V12.7695H157.697L157.175 12.1299V12.7695H147.404L147.146 12.1299H146.458L146.201 12.7695H145V10.96Z" fill="white"/>
<path d="M146.317 9.19043L145.006 12.25H145.86L146.102 11.6396H147.508L147.749 12.25H148.621L147.311 9.19043H146.317ZM146.802 9.91016L147.231 10.9795H146.372L146.802 9.91016Z" fill="#016FD0"/>
<path d="M148.711 12.25V9.19043L149.924 9.2002L150.63 11.1699L151.319 9.19043H152.522V12.25H151.76V10L150.952 12.25H150.283L149.473 10V12.25H148.711Z" fill="#016FD0"/>
<path d="M153.043 12.25V9.19043H155.53V9.87988H153.813V10.4004H155.49V11.04H153.813V11.5898H155.53V12.25H153.043Z" fill="#016FD0"/>
<path d="M155.973 9.19043V12.25H156.735V11.1602H157.056L157.97 12.25H158.901L157.898 11.1201C158.31 11.0901 158.734 10.7404 158.734 10.1904C158.734 9.54043 158.231 9.19043 157.669 9.19043H155.973ZM156.735 9.87988H157.606C157.815 9.87988 157.967 10.0402 157.967 10.2002C157.967 10.4002 157.77 10.5195 157.617 10.5195H156.735V9.87988Z" fill="#016FD0"/>
<path d="M159.823 12.25H159.045V9.19043H159.823V12.25Z" fill="#016FD0"/>
<path d="M161.668 12.25H161.5C160.687 12.25 160.193 11.6102 160.193 10.7402C160.193 9.84023 160.681 9.19043 161.708 9.19043H162.55V9.91992H161.677C161.26 9.91992 160.966 10.2402 160.966 10.7402C160.966 11.3302 161.303 11.5801 161.788 11.5801H161.989L161.668 12.25Z" fill="#016FD0"/>
<path d="M163.327 9.19043L162.016 12.25H162.869L163.111 11.6396H164.518L164.759 12.25H165.631L164.321 9.19043H163.327ZM163.812 9.91016L164.241 10.9795H163.382L163.812 9.91016Z" fill="#016FD0"/>
<path d="M165.721 12.25V9.19043H166.69L167.927 11.1104V9.19043H168.689V12.25H167.752L166.483 10.2803V12.25H165.721Z" fill="#016FD0"/>
<path d="M150.557 17.5996V14.54H153.044V15.2295H151.327V15.75H153.004V16.3896H151.327V16.9404H153.044V17.5996H150.557Z" fill="#016FD0"/>
<path d="M162.744 17.5996V14.54H165.231V15.2295H163.514V15.75H165.183V16.3896H163.514V16.9404H165.231V17.5996H162.744Z" fill="#016FD0"/>
<path d="M153.14 17.5996L154.351 16.0898L153.111 14.54H154.072L154.81 15.5L155.551 14.54H156.474L155.25 16.0703L156.463 17.5996H155.503L154.786 16.6602L154.087 17.5996H153.14Z" fill="#016FD0"/>
<path d="M156.553 14.54V17.5996H157.335V16.6396H158.137C158.816 16.6396 159.331 16.2703 159.331 15.5703C159.331 14.9903 158.927 14.54 158.236 14.54H156.553ZM157.335 15.2402H158.18C158.399 15.2402 158.556 15.3698 158.556 15.5898C158.556 15.7898 158.4 15.9404 158.177 15.9404H157.335V15.2402Z" fill="#016FD0"/>
<path d="M159.662 14.54V17.5996H160.424V16.5098H160.745L161.659 17.5996H162.591L161.588 16.4697C161.999 16.4397 162.424 16.0803 162.424 15.5303C162.424 14.8903 161.92 14.54 161.358 14.54H159.662ZM160.424 15.2295H161.296C161.505 15.2295 161.657 15.3898 161.657 15.5498C161.657 15.7498 161.46 15.8701 161.307 15.8701H160.424V15.2295Z" fill="#016FD0"/>
<path d="M165.583 17.5996V16.9404H167.109C167.334 16.9404 167.432 16.8097 167.432 16.6797C167.432 16.5497 167.335 16.4199 167.109 16.4199H166.419C165.82 16.4199 165.486 16.0598 165.486 15.5098C165.486 15.0198 165.792 14.54 166.682 14.54H168.167L167.846 15.2295H166.562C166.317 15.2295 166.241 15.3595 166.241 15.4795C166.241 15.6095 166.334 15.75 166.522 15.75H167.244C167.912 15.75 168.202 16.1299 168.202 16.6299C168.202 17.1599 167.879 17.5996 167.208 17.5996H165.583Z" fill="#016FD0"/>
<path d="M168.382 17.5996V16.9404H169.907C170.133 16.9404 170.231 16.8097 170.231 16.6797C170.231 16.5497 170.133 16.4199 169.907 16.4199H169.218C168.619 16.4199 168.285 16.0598 168.285 15.5098C168.285 15.0198 168.591 14.54 169.481 14.54H170.965L170.645 15.2295H169.361C169.115 15.2295 169.04 15.3595 169.04 15.4795C169.04 15.6095 169.133 15.75 169.321 15.75H170.043C170.711 15.75 171.001 16.1299 171.001 16.6299C171.001 17.1599 170.678 17.5996 170.006 17.5996H168.382Z" fill="#016FD0"/>
</g>
<mask id="mask2_10_30" style="mask-type:luminance" maskUnits="userSpaceOnUse" x="187" y="0" width="73" height="26">
<path d="M260 0H187V26H260V0Z" fill="white"/>
</mask>
<g mask="url(#mask2_10_30)">
<path d="M217.035 24.2803V9.37012C217.035 6.63012 219.248 4.40039 221.978 4.40039L226.359 4.41016C229.081 4.42016 231.285 6.63012 231.285 9.37012V12.54C231.285 15.29 229.071 17.5098 226.342 17.5098H220.151" stroke="#939598" stroke-width="3" stroke-miterlimit="10" stroke-linecap="round" stroke-linejoin="round"/>
<path d="M232.51 4.40039H234.41C235.53 4.40039 236.438 5.31043 236.438 6.44043V17.5801" stroke="#939598" stroke-width="3" stroke-miterlimit="10" stroke-linecap="round" stroke-linejoin="round"/>
<path d="M236.03 2.67965L235.168 1.80953C234.954 1.59953 234.954 1.25023 235.168 1.03023L236.029 0.169883C236.244 -0.0501172 236.591 -0.0501172 236.805 0.169883L237.666 1.03023C237.88 1.25023 237.88 1.59953 237.666 1.80953L236.804 2.67965C236.591 2.88965 236.244 2.88965 236.03 2.67965Z" fill="#32BCAD"/>
<path d="M240.084 4.38965H241.969C242.938 4.38965 243.868 4.77973 244.553 5.46973L248.961 9.90039C249.532 10.4704 250.458 10.4704 251.029 9.90039L255.42 5.47949C256.106 4.78949 257.036 4.41016 258.005 4.41016H259.537" stroke="#939598" stroke-width="3" stroke-miterlimit="10" stroke-linecap="round" stroke-linejoin="round"/>
<path d="M240.084 17.4799H241.969C242.938 17.4799 243.868 17.0906 244.553 16.4106L248.961 11.9799C249.532 11.3999 250.458 11.3999 251.029 11.9799L255.42 16.3901C256.106 17.0801 257.036 17.4604 258.005 17.4604H259.537" stroke="#939598" stroke-width="3" stroke-miterlimit="10" stroke-linecap="round" stroke-linejoin="round"/>
<path d="M205.801 20.3093C204.855 20.3093 203.965 19.9392 203.296 19.2692L199.681 15.6393C199.427 15.3793 198.984 15.3793 198.73 15.6393L195.102 19.28C194.433 19.95 193.543 20.3298 192.597 20.3298H191.885L196.464 24.9294C197.894 26.3594 200.213 26.3594 201.644 24.9294L206.236 20.3093H205.801Z" fill="#32BCAD"/>
<path d="M192.597 7.45988C193.543 7.45988 194.432 7.82992 195.101 8.49992L198.73 12.1503C198.992 12.4103 199.418 12.4103 199.68 12.1503L203.296 8.50969C203.965 7.83969 204.855 7.46965 205.8 7.46965H206.236L201.643 2.86027C200.213 1.42027 197.894 1.42027 196.464 2.86027L191.885 7.45988H192.597Z" fill="#32BCAD"/>
<path d="M210.034 11.29L207.259 8.5C207.198 8.52 207.132 8.54004 207.062 8.54004H205.8C205.148 8.54004 204.509 8.80953 204.048 9.26953L200.433 12.9004C200.094 13.2404 199.65 13.4102 199.205 13.4102C198.761 13.4102 198.317 13.2404 197.978 12.9004L194.349 9.25977C193.888 8.78977 193.249 8.53027 192.597 8.53027H191.045C190.979 8.53027 190.917 8.51023 190.859 8.49023L188.073 11.29C186.642 12.73 186.642 15.0602 188.073 16.4902L190.859 19.29C190.917 19.27 190.979 19.2598 191.045 19.2598H192.597C193.249 19.2598 193.888 18.9903 194.349 18.5303L197.978 14.8799C198.634 14.2199 199.777 14.2199 200.433 14.8799L204.048 18.5098C204.509 18.9798 205.148 19.2402 205.8 19.2402H207.062C207.132 19.2402 207.198 19.2603 207.259 19.2803L210.034 16.4902C211.465 15.0602 211.465 12.73 210.034 11.29Z" fill="#32BCAD"/>
<path d="M220.803 23.0195C220.598 23.0195 220.359 23.0601 220.124 23.1201V24.0303C220.287 24.0903 220.473 24.1201 220.652 24.1201C221.106 24.1201 221.321 23.9596 221.321 23.5596C221.321 23.1796 221.145 23.0195 220.803 23.0195ZM219.971 24.7002V22.9102H220.095L220.108 22.9795C220.318 22.9295 220.608 22.8701 220.815 22.8701C220.984 22.8701 221.145 22.89 221.279 23C221.435 23.13 221.484 23.3396 221.484 23.5596C221.484 23.7996 221.406 24.0196 221.194 24.1396C221.046 24.2196 220.847 24.2598 220.668 24.2598C220.484 24.2598 220.308 24.2299 220.124 24.1699V24.7002H219.971Z" fill="#939598"/>
<path d="M222.622 23.0098C222.168 23.0098 221.966 23.1498 221.966 23.5498C221.966 23.9398 222.166 24.1201 222.622 24.1201C223.072 24.1201 223.275 23.9803 223.275 23.5703C223.275 23.1903 223.075 23.0098 222.622 23.0098ZM223.205 24.1201C223.054 24.2301 222.852 24.2598 222.622 24.2598C222.386 24.2598 222.184 24.2201 222.036 24.1201C221.87 24.0001 221.803 23.8096 221.803 23.5596C221.803 23.3196 221.87 23.1298 222.036 23.0098C222.184 22.8998 222.386 22.8701 222.622 22.8701C222.855 22.8701 223.054 22.8998 223.205 23.0098C223.373 23.1298 223.438 23.3196 223.438 23.5596C223.438 23.7996 223.37 24.0001 223.205 24.1201Z" fill="#939598"/>
<path d="M225.352 24.2197L224.846 23.1299H224.836L224.338 24.2197H224.201L223.662 22.9102H223.831L224.279 24.0098H224.289L224.776 22.9102H224.916L225.416 24.0098H225.427L225.865 22.9102H226.028L225.489 24.2197H225.352Z" fill="#939598"/>
<path d="M227.006 23.0098C226.586 23.0098 226.444 23.1897 226.418 23.4697H227.594C227.581 23.1697 227.428 23.0098 227.006 23.0098ZM227.001 24.2598C226.749 24.2598 226.586 24.2204 226.457 24.1104C226.304 23.9804 226.252 23.7896 226.252 23.5596C226.252 23.3496 226.322 23.13 226.496 23C226.641 22.9 226.82 22.8701 227.006 22.8701C227.175 22.8701 227.369 22.89 227.529 23C227.719 23.12 227.755 23.3496 227.755 23.5996H226.413C226.418 23.8696 226.506 24.1104 227.014 24.1104C227.255 24.1104 227.48 24.07 227.69 24.04V24.1797C227.472 24.2197 227.231 24.2598 227.001 24.2598Z" fill="#939598"/>
<path d="M228.193 24.2197V22.9102H228.318L228.331 22.9795C228.608 22.9095 228.738 22.8701 228.981 22.8701H228.999V23.0195H228.963C228.758 23.0195 228.634 23.0401 228.346 23.1201V24.2197H228.193Z" fill="#939598"/>
<path d="M229.887 23.0098C229.467 23.0098 229.325 23.1897 229.299 23.4697H230.475C230.462 23.1697 230.309 23.0098 229.887 23.0098ZM229.882 24.2598C229.63 24.2598 229.467 24.2204 229.338 24.1104C229.185 23.9804 229.133 23.7896 229.133 23.5596C229.133 23.3496 229.203 23.13 229.377 23C229.522 22.9 229.7 22.8701 229.887 22.8701C230.055 22.8701 230.25 22.89 230.41 23C230.599 23.12 230.636 23.3496 230.636 23.5996H229.294C229.299 23.8696 229.387 24.1104 229.895 24.1104C230.136 24.1104 230.361 24.07 230.571 24.04V24.1797C230.353 24.2197 230.112 24.2598 229.882 24.2598Z" fill="#939598"/>
<path d="M232.31 23.0996C232.146 23.0396 231.96 23.0098 231.781 23.0098C231.328 23.0098 231.112 23.1596 231.112 23.5596C231.112 23.9396 231.289 24.1104 231.631 24.1104C231.835 24.1104 232.074 24.0598 232.31 24.0098V23.0996ZM232.338 24.2197L232.325 24.1396C232.115 24.1896 231.825 24.2598 231.618 24.2598C231.45 24.2598 231.289 24.2301 231.154 24.1201C230.998 23.9901 230.949 23.7896 230.949 23.5596C230.949 23.3296 231.027 23.1102 231.239 22.9902C231.387 22.9002 231.587 22.8701 231.768 22.8701C231.949 22.8701 232.126 22.9002 232.31 22.9502V22.3496H232.463V24.2197H232.338Z" fill="#939598"/>
<path d="M234.705 23.0098C234.5 23.0098 234.262 23.0601 234.026 23.1201V24.0195C234.192 24.0895 234.376 24.1201 234.555 24.1201C235.008 24.1201 235.223 23.9596 235.223 23.5596C235.223 23.1796 235.047 23.0098 234.705 23.0098ZM235.096 24.1396C234.948 24.2196 234.749 24.2598 234.57 24.2598C234.376 24.2598 234.182 24.2202 233.985 24.1602L233.977 24.2197H233.873V22.3496H234.026V22.9795C234.236 22.9295 234.518 22.8701 234.718 22.8701C234.886 22.8701 235.047 22.89 235.182 23C235.337 23.13 235.386 23.3396 235.386 23.5596C235.386 23.7996 235.309 24.0196 235.096 24.1396Z" fill="#939598"/>
<path d="M235.59 24.7295V24.5801C235.665 24.5901 235.735 24.5996 235.784 24.5996C235.973 24.5996 236.087 24.5403 236.193 24.3203L236.243 24.2197L235.559 22.9102H235.735L236.32 24.04H236.331L236.888 22.9102H237.061L236.326 24.3799C236.191 24.6499 236.046 24.7402 235.779 24.7402C235.719 24.7402 235.654 24.7295 235.59 24.7295Z" fill="#939598"/>
<path d="M239.168 23.4697H238.66V23.9297H239.17C239.52 23.9297 239.653 23.8902 239.653 23.7002C239.653 23.4902 239.471 23.4697 239.168 23.4697ZM239.075 22.7197H238.66V23.1904H239.077C239.422 23.1904 239.559 23.1502 239.559 22.9502C239.559 22.7502 239.386 22.7197 239.075 22.7197ZM239.862 24.0996C239.676 24.2196 239.45 24.2197 239.038 24.2197H238.264V22.4404H239.02C239.375 22.4404 239.593 22.4398 239.774 22.5498C239.904 22.6298 239.956 22.7502 239.956 22.9102C239.956 23.0902 239.878 23.2198 239.676 23.2998V23.3096C239.904 23.3596 240.052 23.4795 240.052 23.7295C240.052 23.9095 239.989 24.0196 239.862 24.0996Z" fill="#939598"/>
<path d="M241.602 23.6699C241.449 23.6599 241.294 23.6504 241.131 23.6504C240.864 23.6504 240.77 23.7003 240.77 23.8203C240.77 23.9403 240.848 24 241.053 24C241.224 24 241.429 23.9599 241.602 23.9199V23.6699ZM241.68 24.2197L241.67 24.1396C241.447 24.1996 241.188 24.2598 240.96 24.2598C240.819 24.2598 240.669 24.2402 240.563 24.1602C240.465 24.0902 240.418 23.9798 240.418 23.8398C240.418 23.6898 240.483 23.5602 240.638 23.4902C240.775 23.4202 240.96 23.4199 241.128 23.4199C241.265 23.4199 241.449 23.4197 241.602 23.4297V23.4102C241.602 23.2102 241.467 23.1396 241.099 23.1396C240.957 23.1396 240.783 23.1502 240.617 23.1602V22.9004C240.801 22.8804 241.009 22.8701 241.18 22.8701C241.408 22.8701 241.644 22.8902 241.789 22.9902C241.939 23.1002 241.968 23.2504 241.968 23.4404V24.2197H241.68Z" fill="#939598"/>
<path d="M243.677 24.2197V23.4902C243.677 23.2502 243.554 23.1699 243.337 23.1699C243.176 23.1699 242.974 23.21 242.803 23.25V24.2197H242.438V22.9102H242.735L242.748 22.9902C242.979 22.9302 243.236 22.8701 243.448 22.8701C243.609 22.8701 243.772 22.89 243.896 23C244 23.1 244.039 23.2299 244.039 23.4199V24.2197H243.677Z" fill="#939598"/>
<path d="M245.071 24.2598C244.903 24.2598 244.719 24.2301 244.584 24.1201C244.424 23.9901 244.377 23.7796 244.377 23.5596C244.377 23.3496 244.444 23.13 244.644 23C244.807 22.89 245.009 22.8701 245.219 22.8701C245.369 22.8701 245.517 22.8796 245.68 22.8896V23.1797C245.548 23.1597 245.39 23.1504 245.263 23.1504C244.916 23.1504 244.753 23.2596 244.753 23.5596C244.753 23.8496 244.874 23.9697 245.159 23.9697C245.325 23.9697 245.52 23.9404 245.709 23.9004V24.1699C245.504 24.2199 245.281 24.2598 245.071 24.2598Z" fill="#939598"/>
<path d="M246.788 23.1504C246.441 23.1504 246.288 23.2498 246.288 23.5498C246.288 23.8498 246.438 23.9795 246.788 23.9795C247.133 23.9795 247.283 23.8703 247.283 23.5703C247.283 23.2803 247.135 23.1504 246.788 23.1504ZM247.415 24.1201C247.254 24.2301 247.045 24.2598 246.788 24.2598C246.526 24.2598 246.316 24.2301 246.158 24.1201C245.977 24.0001 245.912 23.7996 245.912 23.5596C245.912 23.3296 245.977 23.1298 246.158 23.0098C246.316 22.8998 246.526 22.8701 246.788 22.8701C247.047 22.8701 247.254 22.8998 247.415 23.0098C247.596 23.1298 247.659 23.3296 247.659 23.5596C247.659 23.7996 247.594 24.0001 247.415 24.1201Z" fill="#939598"/>
<path d="M249.768 24.2598C249.548 24.2598 249.31 24.2203 249.131 24.0703C248.918 23.8903 248.854 23.6201 248.854 23.3301C248.854 23.0601 248.936 22.7503 249.214 22.5703C249.429 22.4303 249.697 22.4004 249.966 22.4004C250.163 22.4004 250.364 22.4097 250.584 22.4297V22.75C250.395 22.74 250.163 22.7197 249.982 22.7197C249.476 22.7197 249.26 22.9201 249.26 23.3301C249.26 23.7501 249.46 23.9297 249.833 23.9297C250.076 23.9297 250.349 23.8801 250.623 23.8301V24.1396C250.349 24.1996 250.061 24.2598 249.768 24.2598Z" fill="#939598"/>
<path d="M251.696 23.0996C251.393 23.0996 251.276 23.2102 251.253 23.4102H252.134C252.123 23.2002 251.999 23.0996 251.696 23.0996ZM251.641 24.2598C251.426 24.2598 251.232 24.2304 251.087 24.1104C250.931 23.9804 250.877 23.7896 250.877 23.5596C250.877 23.3596 250.942 23.1398 251.123 23.0098C251.284 22.8898 251.489 22.8701 251.696 22.8701C251.882 22.8701 252.103 22.89 252.263 23C252.473 23.15 252.491 23.3804 252.494 23.6504H251.25C251.258 23.8504 251.364 23.9795 251.732 23.9795C251.96 23.9795 252.214 23.9502 252.429 23.9102V24.1699C252.178 24.2099 251.903 24.2598 251.641 24.2598Z" fill="#939598"/>
<path d="M254.119 24.2197V23.4902C254.119 23.2502 253.998 23.1699 253.78 23.1699C253.619 23.1699 253.417 23.21 253.246 23.25V24.2197H252.881V22.9102H253.179L253.192 22.9902C253.422 22.9302 253.679 22.8701 253.892 22.8701C254.052 22.8701 254.215 22.89 254.34 23C254.443 23.1 254.482 23.2299 254.482 23.4199V24.2197H254.119Z" fill="#939598"/>
<path d="M255.521 24.2598C255.345 24.2598 255.185 24.2103 255.097 24.0703C255.032 23.9803 255.001 23.8499 255.001 23.6699V23.1797H254.736V22.9102H255.001L255.04 22.5098H255.363V22.9102H255.879V23.1797H255.363V23.5996C255.363 23.6996 255.371 23.7896 255.4 23.8496C255.439 23.9396 255.524 23.9697 255.638 23.9697C255.723 23.9697 255.827 23.9602 255.9 23.9502V24.21C255.781 24.23 255.643 24.2598 255.521 24.2598Z" fill="#939598"/>
<path d="M256.236 24.2197V22.9102H256.534L256.547 22.9902C256.788 22.9202 256.967 22.8701 257.195 22.8701C257.205 22.8701 257.221 22.8701 257.242 22.8701V23.1797C257.2 23.1797 257.151 23.1797 257.115 23.1797C256.936 23.1797 256.801 23.2 256.602 23.25V24.2197H256.236Z" fill="#939598"/>
<path d="M258.569 23.6699C258.416 23.6599 258.261 23.6504 258.097 23.6504C257.831 23.6504 257.737 23.7003 257.737 23.8203C257.737 23.9403 257.815 24 258.02 24C258.191 24 258.395 23.9599 258.569 23.9199V23.6699ZM258.647 24.2197L258.636 24.1396C258.414 24.1996 258.154 24.2598 257.926 24.2598C257.786 24.2598 257.636 24.2402 257.53 24.1602C257.432 24.0902 257.385 23.9798 257.385 23.8398C257.385 23.6898 257.45 23.5602 257.605 23.4902C257.742 23.4202 257.926 23.4199 258.095 23.4199C258.232 23.4199 258.416 23.4197 258.569 23.4297V23.4102C258.569 23.2102 258.434 23.1396 258.066 23.1396C257.924 23.1396 257.75 23.1502 257.584 23.1602V22.9004C257.768 22.8804 257.976 22.8701 258.147 22.8701C258.375 22.8701 258.611 22.8902 258.756 22.9902C258.906 23.1002 258.934 23.2504 258.934 23.4404V24.2197H258.647Z" fill="#939598"/>
<path d="M259.404 22.3496H259.77V24.2197H259.404V22.3496Z" fill="#939598"/>
</g>
<mask id="mask3_10_30" style="mask-type:luminance" maskUnits="userSpaceOnUse" x="276" y="0" width="42" height="26">
<path d="M318 0H276V26H318V0Z" fill="white"/>
</mask>
<g mask="url(#mask3_10_30)">
<path d="M284.21 0H294.674C296.134 0 297.043 1.17965 296.702 2.63965L291.83 23.3496C291.487 24.7996 290.024 25.9795 288.562 25.9795H278.1C276.641 25.9795 275.731 24.7996 276.071 23.3496L280.945 2.63965C281.286 1.17965 282.747 0 284.21 0Z" fill="#E21836"/>
<path d="M293.803 0H305.836C307.296 0 306.638 1.17965 306.294 2.63965L301.423 23.3496C301.082 24.7996 301.188 25.9795 299.725 25.9795H287.692C286.228 25.9795 285.323 24.7996 285.667 23.3496L290.537 2.63965C290.883 1.17965 292.342 0 293.803 0Z" fill="#00447C"/>
<path d="M305.359 0H315.823C317.286 0 318.194 1.17965 317.85 2.63965L312.98 23.3496C312.636 24.7996 311.172 25.9795 309.71 25.9795H299.251C297.788 25.9795 296.88 24.7996 297.223 23.3496L302.094 2.63965C302.435 1.17965 303.896 0 305.359 0Z" fill="#007B84"/>
<path d="M286.943 6.63965C285.867 6.64965 285.55 6.64012 285.448 6.62012C285.409 6.80012 284.683 10.1201 284.681 10.1201C284.525 10.8001 284.411 11.2701 284.024 11.5801C283.805 11.7601 283.549 11.8496 283.252 11.8496C282.775 11.8496 282.497 11.6099 282.45 11.1699L282.441 11.0195C282.441 11.0195 282.587 10.1204 282.587 10.1104C282.587 10.1104 283.349 7.09043 283.485 6.69043C283.492 6.67043 283.494 6.64965 283.496 6.63965C282.013 6.65965 281.75 6.64012 281.732 6.62012C281.722 6.65012 281.685 6.83984 281.685 6.83984L280.907 10.25L280.84 10.54L280.711 11.4795C280.711 11.7595 280.767 11.9897 280.877 12.1797C281.232 12.7997 282.243 12.8896 282.815 12.8896C283.552 12.8896 284.244 12.7402 284.711 12.4502C285.522 11.9802 285.734 11.2401 285.923 10.5801L286.011 10.2402C286.011 10.2402 286.796 7.10043 286.929 6.69043C286.935 6.67043 286.937 6.64965 286.943 6.63965ZM289.614 9.17969C289.425 9.17969 289.079 9.22012 288.769 9.37012C288.656 9.43012 288.549 9.49957 288.437 9.55957L288.538 9.2002L288.483 9.13965C287.824 9.26965 287.677 9.29012 287.068 9.37012L287.017 9.41016C286.946 9.99016 286.884 10.4196 286.622 11.5596C286.522 11.9796 286.418 12.4101 286.315 12.8301L286.343 12.8799C286.966 12.8499 287.156 12.8504 287.698 12.8604L287.741 12.8096C287.81 12.4596 287.819 12.3799 287.972 11.6699C288.043 11.3399 288.193 10.5998 288.267 10.3398C288.402 10.2698 288.536 10.21 288.663 10.21C288.967 10.21 288.93 10.4801 288.918 10.5801C288.905 10.7601 288.794 11.3303 288.681 11.8203L288.605 12.1396C288.552 12.3696 288.495 12.6001 288.442 12.8301L288.465 12.8799C289.079 12.8499 289.267 12.8504 289.792 12.8604L289.853 12.8096C289.948 12.2596 289.976 12.1203 290.144 11.3203L290.229 10.96C290.394 10.24 290.476 9.87984 290.352 9.58984C290.22 9.25984 289.904 9.17969 289.614 9.17969ZM292.598 9.92969C292.272 9.98969 292.063 10.0296 291.856 10.0596C291.651 10.0896 291.451 10.1202 291.135 10.1602L291.11 10.1797L291.087 10.2002C291.054 10.4302 291.031 10.6401 290.987 10.8701C290.95 11.1201 290.894 11.4 290.801 11.79C290.729 12.1 290.692 12.2103 290.651 12.3203C290.612 12.4203 290.568 12.5301 290.487 12.8301L290.506 12.8604L290.522 12.8799C290.817 12.8699 291.01 12.8604 291.209 12.8604C291.407 12.8504 291.612 12.8604 291.93 12.8604L291.958 12.8398L291.987 12.8096C292.033 12.5396 292.04 12.4701 292.068 12.3301C292.096 12.1901 292.144 11.9997 292.262 11.4697C292.317 11.2197 292.379 10.9795 292.437 10.7295C292.497 10.4795 292.559 10.2295 292.619 9.97949L292.61 9.9502L292.598 9.92969ZM292.605 8.91992C292.308 8.73992 291.787 8.80004 291.437 9.04004C291.087 9.27004 291.047 9.61027 291.343 9.78027C291.635 9.95027 292.158 9.90016 292.505 9.66016C292.854 9.42016 292.898 9.08992 292.605 8.91992ZM294.401 12.9404C295.001 12.9404 295.617 12.77 296.08 12.29C296.437 11.89 296.6 11.2996 296.657 11.0596C296.841 10.2596 296.698 9.89016 296.517 9.66016C296.244 9.31016 295.759 9.2002 295.257 9.2002C294.955 9.2002 294.236 9.23023 293.674 9.74023C293.271 10.1102 293.084 10.6096 292.972 11.0996C292.858 11.5896 292.728 12.4698 293.548 12.7998C293.801 12.9098 294.165 12.9404 294.401 12.9404ZM294.354 11.1299C294.492 10.5299 294.656 10.0195 295.073 10.0195C295.4 10.0195 295.424 10.4 295.278 11C295.252 11.14 295.133 11.6404 294.971 11.8604C294.859 12.0104 294.725 12.1104 294.578 12.1104C294.534 12.1104 294.273 12.1095 294.269 11.7295C294.267 11.5395 294.306 11.3399 294.354 11.1299ZM298.158 12.8604L298.205 12.8096C298.272 12.4596 298.283 12.3799 298.43 11.6699C298.504 11.3399 298.656 10.5998 298.728 10.3398C298.864 10.2698 298.995 10.21 299.127 10.21C299.429 10.21 299.392 10.4801 299.38 10.5801C299.369 10.7601 299.258 11.3303 299.143 11.8203L299.071 12.1396C299.016 12.3696 298.956 12.5998 298.904 12.8398L298.927 12.8799C299.543 12.8499 299.724 12.8504 300.252 12.8604L300.315 12.8096C300.408 12.2596 300.433 12.1203 300.606 11.3203L300.689 10.96C300.854 10.24 300.938 9.87984 300.815 9.58984C300.68 9.25984 300.362 9.17969 300.076 9.17969C299.887 9.17969 299.539 9.22012 299.23 9.37012C299.12 9.43012 299.009 9.49957 298.901 9.55957L298.995 9.2002L298.944 9.13965C298.286 9.26965 298.135 9.29012 297.528 9.37012L297.481 9.41016C297.407 9.99016 297.347 10.4196 297.085 11.5596C296.986 11.9796 296.882 12.4101 296.779 12.8301L296.806 12.8799C297.431 12.8499 297.617 12.8504 298.158 12.8604ZM302.689 12.8799C302.728 12.6899 302.958 11.5801 302.96 11.5801C302.96 11.5801 303.157 10.7702 303.169 10.7402C303.169 10.7402 303.23 10.6501 303.292 10.6201H303.383C304.24 10.6201 305.207 10.6203 305.965 10.0703C306.481 9.69031 306.834 9.1302 306.991 8.4502C307.032 8.2802 307.062 8.07965 307.062 7.88965C307.062 7.61965 307.009 7.36992 306.857 7.16992C306.47 6.62992 305.7 6.62012 304.811 6.62012C304.809 6.62012 304.373 6.62012 304.373 6.62012C303.235 6.63012 302.779 6.63035 302.592 6.61035C302.576 6.69035 302.546 6.83984 302.546 6.83984L302.138 8.70996C302.138 8.70996 301.163 12.6901 301.117 12.8701C302.111 12.8601 302.518 12.8599 302.689 12.8799ZM303.445 9.55957C303.445 9.55957 303.878 7.6902 303.876 7.7002L303.89 7.59961L303.896 7.53027L304.069 7.5498C304.069 7.5498 304.963 7.62012 304.984 7.62012C305.336 7.76012 305.482 8.10957 305.38 8.55957C305.288 8.97957 305.016 9.33 304.666 9.5C304.378 9.64 304.025 9.65039 303.662 9.65039H303.427L303.445 9.55957ZM306.143 11.1699C306.028 11.6499 305.896 12.5296 306.712 12.8496C306.972 12.9596 307.206 12.9895 307.442 12.9795C307.693 12.9695 307.924 12.8402 308.139 12.6602C308.12 12.7402 308.1 12.8099 308.081 12.8799L308.118 12.9297C308.705 12.9097 308.887 12.9102 309.523 12.9102L309.58 12.8701C309.673 12.3301 309.761 11.7995 310.002 10.7695C310.12 10.2695 310.237 9.78004 310.358 9.29004L310.339 9.22949C309.682 9.34949 309.507 9.37973 308.875 9.46973L308.827 9.50977C308.821 9.55977 308.814 9.61039 308.808 9.65039C308.71 9.50039 308.568 9.36027 308.348 9.28027C308.067 9.17027 307.408 9.31031 306.841 9.82031C306.442 10.1903 306.251 10.6899 306.143 11.1699ZM307.521 11.2002C307.662 10.6002 307.823 10.0996 308.242 10.0996C308.506 10.0996 308.645 10.34 308.617 10.75C308.594 10.85 308.57 10.9601 308.541 11.0801C308.5 11.2601 308.454 11.4404 308.41 11.6104C308.365 11.7304 308.313 11.8499 308.256 11.9199C308.148 12.0699 307.892 12.1699 307.744 12.1699C307.703 12.1699 307.445 12.17 307.436 11.79C307.434 11.6 307.473 11.4102 307.521 11.2002ZM314.721 9.22949L314.671 9.16992C314.021 9.29992 313.903 9.32039 313.307 9.40039L313.263 9.4502C313.261 9.4502 313.259 9.45973 313.256 9.46973L313.254 9.45996C312.809 10.48 312.822 10.2596 312.461 11.0596C312.459 11.0196 312.459 11 312.457 10.96L312.366 9.22949L312.309 9.16992C311.629 9.29992 311.613 9.32039 310.984 9.40039L310.935 9.4502C310.929 9.4702 310.929 9.48977 310.924 9.50977L310.929 9.51953C311.007 9.91953 310.988 9.82996 311.067 10.46C311.104 10.77 311.153 11.0799 311.189 11.3799C311.251 11.8899 311.286 12.1399 311.362 12.9199C310.937 13.6099 310.837 13.8695 310.428 14.4795L310.431 14.4902L310.144 14.9404C310.111 14.9904 310.081 15.0203 310.039 15.0303C309.993 15.0603 309.933 15.0596 309.85 15.0596H309.691L309.454 15.8398L310.267 15.8496C310.744 15.8496 311.044 15.6301 311.206 15.3301L311.717 14.4697H311.708L311.762 14.4102C312.106 13.6702 314.721 9.22949 314.721 9.22949ZM306.142 19.4795H305.798L307.074 15.2998H307.497L307.632 14.8701L307.645 15.3496C307.629 15.6396 307.864 15.9104 308.482 15.8604H309.196L309.442 15.0596H309.173C309.019 15.0596 308.947 15.0204 308.956 14.9404L308.943 14.4502H307.62C307.192 14.4602 305.915 14.4896 305.656 14.5596C305.343 14.6396 305.014 14.8799 305.014 14.8799L305.143 14.4404H303.906L303.648 15.2998L302.355 19.5498H302.104L301.857 20.3398H304.322L304.24 20.6104H305.454L305.535 20.3398H305.875L306.142 19.4795ZM305.131 16.1504C304.933 16.2004 304.564 16.3701 304.564 16.3701L304.892 15.2998H305.875L305.638 16.0801C305.638 16.0801 305.335 16.1004 305.131 16.1504ZM305.15 17.6797C305.15 17.6797 304.841 17.7098 304.638 17.7598C304.438 17.8198 304.062 18.0098 304.062 18.0098L304.401 16.9004H305.389L305.15 17.6797ZM304.599 19.4902H303.613L303.899 18.5498H304.882L304.599 19.4902ZM306.974 16.9004H308.396L308.192 17.5498H306.751L306.535 18.2695H307.795L306.841 19.5996C306.774 19.6996 306.714 19.7298 306.648 19.7598C306.581 19.7898 306.493 19.8301 306.392 19.8301H306.042L305.802 20.6201H306.716C307.192 20.6201 307.472 20.4001 307.68 20.1201L308.334 19.2402L308.475 20.1396C308.505 20.2996 308.627 20.4004 308.71 20.4404C308.801 20.4904 308.896 20.5701 309.03 20.5801C309.173 20.5801 309.277 20.5898 309.345 20.5898H309.795L310.065 19.71H309.887C309.786 19.71 309.61 19.6902 309.581 19.6602C309.551 19.6202 309.551 19.5597 309.535 19.4697L309.392 18.5703H308.808L309.064 18.2695H310.502L310.723 17.5498H309.392L309.599 16.9004H310.926L311.173 16.0898H307.216L306.974 16.9004ZM294.967 19.6699L295.299 18.5801H296.663L296.912 17.7695H295.547L295.755 17.0898H297.089L297.336 16.3096H293.999L293.757 17.0898H294.515L294.313 17.7695H293.553L293.301 18.5898H294.059L293.616 20.04C293.557 20.23 293.644 20.2996 293.7 20.3896C293.757 20.4796 293.815 20.5403 293.944 20.5703C294.078 20.6003 294.169 20.6201 294.294 20.6201H295.831L296.105 19.7197L295.424 19.8096C295.292 19.8096 294.928 19.7899 294.967 19.6699ZM295.124 14.4404L294.778 15.0596C294.704 15.1896 294.638 15.2803 294.578 15.3203C294.525 15.3503 294.42 15.3604 294.269 15.3604H294.089L293.848 16.1504H294.446C294.734 16.1504 294.955 16.05 295.061 16C295.175 15.94 295.204 15.9696 295.292 15.8896L295.494 15.71H297.364L297.612 14.8896H296.244L296.483 14.4404H295.124ZM297.884 19.6904C297.853 19.6404 297.876 19.5604 297.924 19.4004L298.435 17.7197H300.254C300.519 17.7197 300.71 17.71 300.834 17.71C300.968 17.69 301.113 17.6396 301.272 17.5596C301.435 17.4696 301.519 17.3795 301.589 17.2695C301.668 17.1595 301.795 16.9296 301.903 16.5596L302.546 14.4404L300.659 14.46C300.659 14.46 300.078 14.5399 299.822 14.6299C299.564 14.7399 299.195 15.0303 299.195 15.0303L299.366 14.4502H298.2L296.568 19.8096C296.511 20.0196 296.472 20.1698 296.463 20.2598C296.46 20.3598 296.587 20.4503 296.67 20.5303C296.768 20.6003 296.912 20.5896 297.05 20.5996C297.196 20.6096 297.403 20.6201 297.689 20.6201H298.585L298.86 19.7002L298.058 19.7695C297.972 19.7695 297.91 19.7304 297.884 19.6904ZM298.765 16.5898H300.675L300.553 16.9697C300.536 16.9797 300.496 16.9497 300.301 16.9697H298.648L298.765 16.5898ZM299.148 15.3301H301.074L300.935 15.7803C300.935 15.7803 300.027 15.7698 299.882 15.7998C299.242 15.9098 298.869 16.25 298.869 16.25L299.148 15.3301ZM300.596 18.2295C300.58 18.2895 300.555 18.3196 300.52 18.3496C300.482 18.3696 300.419 18.3799 300.325 18.3799H300.053L300.069 17.9199H298.937L298.892 20.1602C298.89 20.3302 298.906 20.4202 299.025 20.4902C299.145 20.5902 299.513 20.5996 300.009 20.5996H300.719L300.975 19.7598L300.357 19.79L300.152 19.8096C300.124 19.7896 300.097 19.78 300.067 19.75C300.041 19.73 299.997 19.7401 300.005 19.5801L300.009 19.0098L300.657 18.9795C301.007 18.9795 301.156 18.8698 301.284 18.7598C301.405 18.6598 301.445 18.5399 301.491 18.3799L301.6 17.8701H300.71L300.596 18.2295Z" fill="#FEFEFE"/>
</g>
<path d="M355.138 8.2998H348.629C348.629 7.2298 348.503 6.51039 348.253 6.15039C347.865 5.61039 346.796 5.33984 345.046 5.33984C343.347 5.33984 342.22 5.48957 341.67 5.80957C341.121 6.11957 340.845 6.79984 340.845 7.83984C340.845 8.78984 341.089 9.40996 341.578 9.70996C341.927 9.91996 342.39 10.0501 342.965 10.0801L344.278 10.1797C347.092 10.3597 348.849 10.5003 349.55 10.5703C351.775 10.7903 353.389 11.3896 354.389 12.3496C355.177 13.0896 355.647 14.0703 355.796 15.2803C355.884 16.0003 355.928 16.8195 355.928 17.7295C355.928 19.8195 355.728 21.3503 355.328 22.3203C354.604 24.1103 352.975 25.23 350.442 25.71C349.38 25.91 347.756 26.0098 345.572 26.0098C341.926 26.0098 339.386 25.7896 337.951 25.3496C336.191 24.8196 335.029 23.7404 334.468 22.1104C334.155 21.2004 334 19.6903 334 17.5703H340.51C340.51 17.8103 340.51 17.9904 340.51 18.1104C340.51 19.2404 340.835 19.97 341.483 20.29C341.932 20.51 342.473 20.6296 343.11 20.6396H345.504C346.725 20.6396 347.504 20.58 347.841 20.46C348.439 20.22 348.832 19.8403 349.02 19.3203C349.119 18.9903 349.169 18.5803 349.169 18.0703C349.169 16.9203 348.751 16.2295 347.917 15.9795C347.604 15.8795 346.153 15.7396 343.562 15.5596C341.481 15.4196 340.036 15.2699 339.227 15.1299C337.096 14.7399 335.675 13.9199 334.966 12.6699C334.343 11.6099 334.032 10.0101 334.032 7.87012C334.032 6.24012 334.2 4.9402 334.537 3.9502C334.873 2.9702 335.416 2.21996 336.165 1.70996C337.263 0.929961 338.667 0.470078 340.376 0.330078C341.799 0.210078 343.376 0.139648 345.112 0.139648C347.844 0.139648 349.792 0.300352 350.952 0.610352C353.785 1.37035 355.202 3.49977 355.202 7.00977C355.202 7.29977 355.18 7.7198 355.138 8.2998Z" fill="#10298E"/>
<path d="M383.766 26V0H393.965H395.565H396.803C398.591 0 399.955 0.15043 400.893 0.44043C403.037 1.11043 404.476 2.49031 405.213 4.57031C405.593 5.66031 405.784 7.3 405.784 9.5C405.784 12.13 405.573 14.0297 405.155 15.1797C404.318 17.4597 402.598 18.7801 399.999 19.1201C399.693 19.1701 398.392 19.22 396.096 19.25L394.935 19.29H390.763V26H383.766ZM390.763 13.2598H395.125C396.509 13.2098 397.35 13.1004 397.653 12.9404C398.066 12.7104 398.344 12.2603 398.482 11.5703C398.571 11.1203 398.614 10.44 398.614 9.54004C398.614 8.44004 398.527 7.62961 398.35 7.09961C398.099 6.34961 397.496 5.89949 396.542 5.72949C396.352 5.70949 395.9 5.69043 395.184 5.69043H390.763V13.2598Z" fill="#10298E"/>
<path d="M420.72 21.5098H411.364L410.107 26H402.867L410.679 0H421.235L429.143 26H422.055L420.72 21.5098ZM419.33 16.4502L416.052 5.17969L412.87 16.4502H419.33Z" fill="#10298E"/>
<path d="M374.106 3.66016C376.992 3.66016 379.568 4.99031 381.261 7.07031L382.77 3.83984C380.411 1.60984 377.2 0.240234 373.659 0.240234C368.145 0.240234 363.428 3.57027 361.493 8.28027H358.551L356.814 12H360.598C360.57 12.35 360.551 12.6898 360.551 13.0498C360.551 13.4698 360.574 13.8996 360.616 14.3096H358.714L356.978 18.04H361.583C363.574 22.63 368.232 25.8604 373.659 25.8604C376.394 25.8604 378.932 25.0396 381.034 23.6396V19.0703C379.341 21.0003 376.866 22.2197 374.106 22.2197C370.881 22.2197 368.043 20.55 366.391 18.04H376.034L377.771 14.3096H364.973C364.906 13.8596 364.871 13.4104 364.871 12.9404C364.871 12.6204 364.887 12.31 364.918 12H378.847L380.584 8.28027H366.122C367.722 5.52027 370.698 3.66016 374.106 3.66016Z" fill="#FFBE00"/>
<path d="M374.108 3.76953C376.858 3.76953 379.434 5.00039 381.176 7.15039L381.289 7.28027L381.365 7.12012L382.873 3.88965L382.906 3.80957L382.849 3.75977C380.369 1.41977 377.106 0.129883 373.66 0.129883C370.97 0.129883 368.381 0.910391 366.173 2.40039C364.017 3.85039 362.363 5.87023 361.391 8.24023L361.494 8.16992H358.553H358.481L358.451 8.22949L356.715 11.96L356.641 12.1201H356.816H360.6L360.488 11.9902C360.457 12.3802 360.441 12.7298 360.441 13.0498C360.441 13.4698 360.463 13.9003 360.506 14.3203L360.617 14.2002H358.715H358.645L358.615 14.2695L356.878 17.9902L356.804 18.1504H356.979H361.584L361.482 18.0801C363.558 22.8701 368.338 25.9697 373.66 25.9697C376.328 25.9697 378.899 25.1995 381.097 23.7295L381.146 23.7002V23.6396V19.0703V18.7803L380.951 19C379.217 20.97 376.723 22.1104 374.108 22.1104C371.031 22.1104 368.182 20.5595 366.486 17.9795L366.393 18.1504H376.035H376.107L376.137 18.0801L377.874 14.3604L377.948 14.2002H377.772H364.974L365.085 14.2998C365.019 13.8498 364.985 13.3904 364.985 12.9404C364.985 12.6304 365 12.3195 365.031 12.0195L364.92 12.1201H378.849H378.92L378.95 12.0498L380.686 8.33008L380.761 8.16992H380.585H366.123L366.22 8.33984C367.85 5.51984 370.874 3.76953 374.108 3.76953ZM366.123 8.38965H380.585L380.483 8.22949L378.748 11.96L378.849 11.8896H364.92H364.819L364.808 11.9902C364.777 12.3102 364.761 12.6304 364.761 12.9404C364.761 13.4004 364.796 13.8701 364.863 14.3301L364.878 14.4199H364.974H377.772L377.671 14.2695L375.935 17.9902L376.035 17.9297H366.393H366.185L366.299 18.0996C368.037 20.7496 370.957 22.3301 374.108 22.3301C376.787 22.3301 379.343 21.1704 381.119 19.1504L380.923 19.0703V23.6396L380.972 23.5498C378.811 24.9798 376.284 25.75 373.66 25.75C368.427 25.75 363.727 22.7002 361.687 17.9902L361.658 17.9297H361.584H356.979L357.081 18.0801L358.817 14.3604L358.715 14.4199H360.617H360.74L360.728 14.2998C360.686 13.8798 360.664 13.4598 360.664 13.0498C360.664 12.7298 360.68 12.3898 360.711 12.0098L360.721 11.8896H360.6H356.816L356.917 12.0498L358.654 8.33008L358.553 8.38965H361.494H361.569L361.597 8.32031C362.553 6.00031 364.179 4.01008 366.298 2.58008C368.468 1.12008 371.015 0.349609 373.66 0.349609C377.049 0.349609 380.256 1.61992 382.694 3.91992L382.67 3.79004L381.162 7.03027L381.35 7C379.564 4.81 376.925 3.5498 374.108 3.5498C370.793 3.5498 367.698 5.33973 366.026 8.21973L365.929 8.38965H366.123Z" fill="#10298E"/>
<path d="M470.743 9.79004C470.586 9.16004 470.377 8.57977 470.168 8.00977C470.064 7.79977 470.012 7.64023 469.907 7.49023C469.646 6.91023 469.071 5.97 468.705 5.5C468.601 5.34 468.496 5.18027 468.34 5.03027L467.817 4.40039C467.556 4.09039 466.72 3.30023 466.354 2.99023C466.041 2.73023 465.78 2.51957 465.466 2.30957C463.69 1.09957 461.809 0.370352 459.667 0.110352C459.249 0.0603516 458.883 0 458.518 0H457.368C457.159 0.06 456.846 0.0595703 456.637 0.0595703C455.54 0.15957 454.442 0.479844 453.45 0.839844C452.979 1.04984 452.457 1.25973 452.091 1.46973C451.987 1.56973 451.935 1.56988 451.83 1.62988C451.726 1.67988 451.673 1.73027 451.569 1.78027C451.464 1.84027 451.412 1.89043 451.308 1.94043C450.733 2.31043 450.524 2.45969 449.897 2.92969C449.583 3.19969 449.322 3.45973 449.061 3.71973L448.486 4.29004C448.382 4.40004 448.382 4.45 448.277 4.5C448.173 4.66 448.068 4.81973 447.912 4.96973C447.807 5.12973 447.703 5.23965 447.598 5.38965L446.971 6.33008L446.553 7.12012C446.344 7.54012 446.083 8.11027 445.926 8.53027C445.822 8.95027 445.665 9.32023 445.561 9.74023C445.456 10.1502 445.352 10.57 445.299 11.04C445.195 11.57 445.143 12.0904 445.143 12.6104C445.143 13.5504 445.143 13.9202 445.247 14.9102C445.456 16.3802 445.926 17.7898 446.605 19.0498C447.546 20.8798 448.957 22.5004 450.628 23.6504C451.151 24.0204 451.987 24.5398 452.614 24.7998C454.129 25.4798 455.957 26 457.682 26C459.144 26 459.876 25.9996 461.287 25.6396C462.436 25.3796 463.324 24.9604 464.369 24.4404C464.892 24.1704 465.832 23.5497 466.25 23.1797C466.981 22.5497 467.399 22.1904 468.026 21.4004C468.287 21.0904 468.496 20.8298 468.705 20.5098L469.176 19.8301C469.228 19.7301 469.28 19.6703 469.332 19.5703C469.803 18.7903 470.012 18.2597 470.325 17.4297C470.482 17.0597 470.586 16.6397 470.691 16.2197C471.266 14.0797 471.266 11.93 470.743 9.79004ZM468.079 5.65039C468.287 5.97039 468.496 6.23004 468.653 6.54004C468.862 6.86004 469.019 7.17023 469.176 7.49023C469.228 7.59023 469.228 7.64 469.28 7.75L469.489 8.26953C469.541 8.37953 469.541 8.48027 469.594 8.53027H464.892C464.839 8.43027 464.787 8.10977 464.787 8.00977C464.735 7.84977 464.683 7.70023 464.63 7.49023L464.317 6.54004C464.108 5.97004 463.847 5.44992 463.533 4.91992L463.481 4.82031H467.452C467.452 4.92031 468.026 5.60039 468.079 5.65039ZM460.189 0.790039C460.973 0.890039 461.809 1.15992 462.54 1.41992L463.69 1.94043C464.003 2.10043 464.265 2.25016 464.526 2.41016C465.309 2.88016 465.78 3.24988 466.407 3.87988C466.563 3.97988 466.72 4.09043 466.825 4.19043H463.063C462.802 3.72043 461.652 2.41023 461.182 1.99023L461.078 1.88965L460.607 1.46973C460.503 1.41973 460.451 1.36977 460.346 1.25977C460.242 1.20977 460.189 1.1598 460.085 1.0498L459.562 0.69043C459.771 0.74043 459.98 0.790039 460.189 0.790039ZM458.465 0.69043C458.518 0.69043 458.935 0.949805 459.04 1.0498C459.249 1.1598 460.137 1.8898 460.346 2.0498L460.607 2.25C460.764 2.41 460.921 2.51992 461.078 2.66992L462.279 4.19043H458.465V0.69043ZM458.465 4.87012H462.749C462.749 4.97012 462.802 4.97008 462.854 5.08008L463.429 6.12988C463.585 6.43988 463.69 6.70031 463.847 7.07031C463.951 7.33031 464.265 8.38008 464.265 8.58008H458.465V4.87012ZM457.838 0.69043V4.19043H454.024C454.233 3.82043 454.599 3.5102 454.86 3.2002L456.271 1.88965C456.637 1.62965 456.95 1.30961 457.316 1.09961C457.368 0.999609 457.734 0.74043 457.838 0.69043ZM457.838 4.87012V8.53027H452.039C452.039 8.32027 452.248 7.70023 452.3 7.49023C452.405 7.12023 452.509 6.86004 452.666 6.54004C452.875 6.02004 453.032 5.71023 453.293 5.24023C453.345 5.18023 453.502 4.92012 453.502 4.87012H457.838ZM449.636 4.03027L449.792 3.87988C451.046 2.66988 452.823 1.73016 454.495 1.16016C454.965 1.00016 455.592 0.890039 456.114 0.790039C456.323 0.740039 456.532 0.740234 456.741 0.740234C456.532 0.890234 456.062 1.20973 455.748 1.46973C455.696 1.51973 455.644 1.52031 455.592 1.57031C455.331 1.78031 454.495 2.57027 454.338 2.78027L454.024 3.13965C453.868 3.29965 453.293 4.03004 453.188 4.29004H449.479C449.531 4.14004 449.583 4.09027 449.636 4.03027ZM447.076 7.49023C447.128 7.43023 447.128 7.38027 447.18 7.28027C447.232 7.12027 447.285 7.01035 447.389 6.86035L447.859 6.07031C447.964 6.02031 448.643 5.03012 448.8 4.87012C448.852 4.82012 448.904 4.82031 449.061 4.82031H452.77C452.77 4.87031 452.718 4.97027 452.666 5.03027C452.405 5.50027 452.144 6.02004 451.935 6.54004C451.83 6.86004 451.673 7.17023 451.621 7.49023C451.569 7.70023 451.36 8.32027 451.36 8.53027H446.605C446.71 8.27027 446.919 7.80023 447.076 7.49023ZM448.8 21.1396C448.8 21.0896 448.225 20.4098 448.173 20.2998L447.076 18.4697C446.919 18.1597 446.762 17.6897 446.605 17.4297H451.36C451.36 17.6897 451.517 18.2097 451.621 18.4697C451.987 19.6697 452.77 21.1396 452.77 21.1396H448.8ZM455.54 25.1201C454.181 24.8001 452.927 24.3296 451.726 23.5996C451.464 23.4396 451.151 23.2301 450.942 23.0801C450.837 22.9701 450.681 22.8698 450.576 22.7598C450.524 22.7098 450.472 22.6596 450.367 22.5996C450.315 22.5496 450.315 22.5498 450.263 22.5498L450.158 22.4502L450.001 22.29L449.845 22.1299C449.74 22.0299 449.583 21.9203 449.531 21.8203H453.293C453.502 22.1903 453.92 22.6595 454.233 23.0195C454.286 23.1295 454.39 23.1795 454.442 23.2295C454.756 23.6495 455.801 24.5402 456.271 24.9102L456.793 25.2695C456.375 25.2695 455.801 25.1701 455.54 25.1201ZM457.838 25.2695C457.577 25.2195 456.532 24.3301 456.219 24.1201L455.957 23.9102C455.696 23.6502 455.278 23.3395 455.017 23.0195L454.181 22.0303C454.129 21.9203 454.077 21.8695 453.972 21.7695H457.786L457.838 25.2695ZM457.838 21.1396H453.502C453.502 21.0896 453.45 21.0397 453.397 20.9297C453.345 20.8797 453.293 20.7697 453.293 20.7197L452.823 19.8799C452.509 19.3099 452.091 18.0497 451.987 17.4297H457.786L457.838 21.1396ZM462.279 21.8203C462.018 22.2403 461.391 22.9203 461.025 23.2803C460.921 23.3903 460.869 23.4398 460.816 23.5498L460.085 24.1699C459.824 24.3799 458.674 25.2703 458.465 25.3203V21.8203H462.279ZM458.465 21.1396V17.4795H464.265C464.265 17.7395 463.951 18.6802 463.847 18.9902C463.794 19.1502 463.742 19.3097 463.638 19.4697C463.481 19.8297 463.115 20.5595 462.854 20.9795C462.802 21.0395 462.749 21.0904 462.749 21.1904H458.465V21.1396ZM466.093 22.4502L465.727 22.7598C465.623 22.8698 465.466 22.9701 465.362 23.0801C463.794 24.1701 462.07 24.9595 460.189 25.2695C459.98 25.3195 459.771 25.3203 459.562 25.3203L460.816 24.3799C461.078 24.1699 462.018 23.2296 462.331 22.8096L462.906 22.0801L463.011 21.9795C463.063 21.9195 463.063 21.9203 463.115 21.8203H466.877C466.72 21.9203 466.302 22.2902 466.093 22.4502ZM469.541 17.7402L469.332 18.2598C469.071 18.8398 468.496 19.8304 468.079 20.3604L467.452 21.1904H463.481C464.108 20.0404 464.265 19.8295 464.63 18.5195L464.892 17.4795H469.594C469.646 17.5295 469.594 17.6302 469.541 17.7402ZM470.116 15.96C470.064 16.12 470.064 16.2697 470.012 16.4297C469.959 16.5397 469.907 16.7996 469.907 16.8496H446.396L446.135 15.96C446.083 15.65 445.979 15.3295 445.926 15.0195C445.874 14.7095 445.822 14.3903 445.822 14.0303C445.822 13.8703 445.77 13.66 445.77 13.5V12.9795C445.77 11.8795 445.926 10.6201 446.24 9.58008C446.292 9.42008 446.344 9.26016 446.344 9.16016H469.855C469.907 9.26016 469.959 9.42008 469.959 9.58008C470.168 10.2601 470.325 11.1997 470.377 11.9297V12.9795C470.482 13.9695 470.377 15.02 470.116 15.96Z" fill="#7A6E67"/>
<path d="M452.091 15.7002C452.718 15.7002 452.561 15.8001 452.822 15.3301L453.292 14.4404C453.345 14.3404 453.345 14.2895 453.397 14.2295C453.71 13.7095 454.076 12.8696 454.389 12.3496L454.442 12.2998C454.442 12.4598 454.494 12.6595 454.494 12.7695C454.494 12.9795 454.494 13.0802 454.546 13.2402L454.755 15.4404C454.755 15.7004 454.651 15.6504 455.382 15.6504C455.434 15.5404 456.27 13.8204 456.427 13.6104C456.479 13.5004 456.532 13.4002 456.584 13.2402L457.472 11.5098L457.629 11.2002C457.733 11.0402 457.994 10.5202 458.099 10.4102C458.203 10.3102 458.203 10.4098 458.203 10.2598H457.159C457.159 10.6198 457.368 10.41 456.897 11.46C456.845 11.62 456.793 11.7199 456.688 11.8799L455.852 13.5C455.8 13.61 455.696 13.8701 455.643 13.8701C455.643 13.4501 455.434 11.78 455.434 11.25C455.434 10.94 455.382 10.6804 455.382 10.3604H454.912L453.345 13.2402C453.292 13.3402 453.031 13.8701 452.979 13.8701C452.979 13.1901 452.718 11.7204 452.718 10.9404C452.718 10.8304 452.718 10.6803 452.77 10.5703C452.822 10.4103 452.927 10.4098 452.927 10.2598H451.359C451.359 10.4698 451.464 10.3601 451.568 10.8301L451.725 12.1904C451.777 12.7704 452.091 15.4402 452.091 15.7002ZM448.538 11.46C448.538 12.51 450.576 12.6095 450.576 14.0195C450.576 14.3895 450.523 14.5996 450.419 14.8096C450.314 15.0196 450.21 15.1801 450.053 15.3301C449.896 15.4901 449.687 15.5904 449.478 15.6504C448.904 15.8604 448.172 15.8004 447.545 15.6504C447.441 15.5904 447.284 15.54 447.18 15.54C446.709 15.33 446.918 15.33 447.075 14.5C447.127 14.39 447.075 14.34 447.18 14.29C447.18 14.6 447.336 14.9103 447.493 15.0703C447.754 15.3803 448.12 15.3799 448.538 15.3799C449.008 15.3799 449.374 15.0702 449.478 14.7002C449.635 13.9202 448.956 13.6102 448.538 13.2402C448.068 12.8702 447.545 12.5103 447.545 11.7803C447.545 11.4103 447.702 10.9901 447.911 10.8301C448.12 10.6201 448.381 10.4096 448.695 10.3096C448.956 10.2096 449.217 10.2104 449.531 10.1504C449.792 10.1504 450.576 10.2602 450.837 10.4102C450.837 10.5702 450.628 11.2504 450.628 11.3604H450.523C450.523 11.1504 450.367 10.8895 450.21 10.7295C450.105 10.6795 450.053 10.6203 449.896 10.5703C449.269 10.4103 448.538 10.68 448.538 11.46ZM462.07 10.5703C462.07 10.8903 461.495 12.8204 461.39 13.1904C461.234 13.7604 461.025 14.5501 460.816 15.1201C460.763 15.3301 460.659 15.5398 460.45 15.5898V15.7002H462.07C462.07 15.3802 461.808 15.6495 462.279 14.2295L462.592 13.1396H463.48C463.741 13.1896 463.95 13.24 464.003 13.5C464.159 13.5 464.107 13.4003 464.212 13.0303C464.264 12.8703 464.316 12.6598 464.368 12.5098C464.212 12.5098 464.264 12.6102 464.055 12.6602C463.846 12.7202 462.958 12.7197 462.697 12.7197L463.167 11.04C463.271 10.57 463.376 10.6797 464.212 10.6797C464.421 10.6797 464.63 10.7796 464.734 10.8896C465.048 11.1996 464.891 11.25 465.1 11.25C465.1 11.15 465.204 10.8895 465.257 10.7295C465.309 10.6195 465.309 10.5697 465.361 10.4697C465.413 10.3597 465.466 10.2598 465.361 10.2598H462.122C461.965 10.4098 462.07 10.4703 462.07 10.5703ZM465.309 11.25C465.518 11.25 465.413 11.0403 465.884 10.7803C466.197 10.6203 466.458 10.6797 466.876 10.6797L465.779 14.5C465.675 14.81 465.518 15.5398 465.257 15.5898V15.7002H466.824C466.824 15.3802 466.615 15.6998 466.876 14.7598C466.928 14.5498 466.981 14.3897 467.033 14.1797L467.346 13.0303C467.555 12.3503 467.764 11.5701 467.973 10.8301C468.026 10.6801 467.973 10.7295 468.496 10.7295C468.862 10.7295 469.175 10.9898 469.28 11.2998C469.436 11.2998 469.384 11.1496 469.489 10.8896C469.541 10.7796 469.645 10.4704 469.645 10.3604H465.727C465.622 10.3604 465.57 10.6201 465.518 10.8301C465.413 10.8901 465.309 11.1 465.309 11.25ZM459.092 10.5195C459.092 10.8295 459.092 10.73 459.039 11.04L458.778 11.9795C458.674 12.3995 457.89 15.2304 457.681 15.4404C457.576 15.5904 457.524 15.5404 457.472 15.6504H459.092C459.092 15.3304 458.883 15.5904 459.144 14.6504L459.301 14.0195C459.405 13.6095 459.562 13.1895 459.666 12.7695C459.823 12.1895 460.032 11.4101 460.241 10.8301C460.293 10.6201 460.398 10.4104 460.607 10.3604V10.2598C458.465 10.2598 459.092 10.2095 459.092 10.5195Z" fill="#7A6E67"/>
<mask id="mask4_10_30" style="mask-type:luminance" maskUnits="userSpaceOnUse" x="487" y="0" width="78" height="26">
<path d="M564.129 0H487.129V26H564.129V0Z" fill="white"/>
</mask>
<g mask="url(#mask4_10_30)">
<path fill-rule="evenodd" clip-rule="evenodd" d="M501.589 7.87012C503.934 7.75012 506.162 7.56973 508.472 7.46973C507.807 2.58973 505.451 0 498.324 0C491.198 0 488.289 3.60039 487.887 6.90039C487.435 10.6204 490.235 12.9996 494.711 14.3096C498.577 15.4396 501.818 16.2301 501.918 18.1201C502.027 20.1601 499.694 21.3096 498.538 21.3096C496.473 21.3096 494.227 19.0197 493.958 16.9297C491.71 17.1097 489.377 17.12 487.129 17.29C487.129 22.99 491.758 26 497.896 26C503.619 26 509.241 23.6004 509.241 17.4404C509.241 9.97043 501.156 9.97988 495.863 8.12988C494.012 7.10988 494.977 4.87969 496.719 4.67969C500.236 4.25969 500.84 6.26012 501.589 7.87012ZM523.623 0.610352C528.209 0.610352 531.457 3.13977 531.457 8.25977C531.457 12.9498 528.226 15.9502 523.536 15.9502H517.678V24.9404C517.678 25.3504 517.496 25.5498 517.132 25.5498H511.02C510.51 25.5498 510.255 25.3595 510.255 24.9795V1.67969C510.255 0.969688 510.613 0.610352 511.329 0.610352H523.623ZM518.266 11.2002C517.833 11.2002 517.677 11.02 517.677 10.75V5.91992C517.677 5.56992 517.966 5.37012 518.231 5.37012H520.798C523.008 5.70012 523.817 6.8902 523.817 8.4502C523.817 10.6902 521.825 11.2002 520.095 11.2002H518.266Z" fill="#343084"/>
<path fill-rule="evenodd" clip-rule="evenodd" d="M533.123 1.29938C533.123 0.989378 533.348 0.749573 533.596 0.749573H553.078C553.508 0.729573 553.555 0.909886 553.555 1.06989V5.5191C553.575 5.7291 553.405 5.81989 553.253 5.81989H540.917C540.659 5.81989 540.574 6.08946 540.574 6.37946V9.37946C540.574 9.70946 540.805 9.99957 541.195 9.99957H552.11L552.359 10.2496V14.4195C552.234 14.5995 552.109 14.7795 551.984 14.9595H540.986C540.731 14.9595 540.574 15.1197 540.574 15.3697V19.3795C540.574 19.5995 540.837 19.8394 541.145 19.8394H553.305C553.466 19.8394 553.554 19.9894 553.554 20.0894V24.9498C553.554 25.0698 553.424 25.19 553.314 25.19H533.322C533.217 25.19 533.123 25.0898 533.123 24.9898V1.29938Z" fill="#FF9400"/>
<path fill-rule="evenodd" clip-rule="evenodd" d="M564.128 14.54V25.1904H557.191C557.086 25.1904 556.992 25.0902 556.992 24.9902V15.4697C556.992 15.2197 557.168 15.0703 557.3 15.0703H559.292C559.492 15.0703 559.543 15.2396 559.543 15.3896V19.8398C559.543 20.3998 560.014 20.1598 560.266 19.8398C561.554 18.0698 562.842 16.3 564.13 14.54H564.128Z" fill="#343084"/>
<path fill-rule="evenodd" clip-rule="evenodd" d="M556.689 1.2998C556.689 0.989805 556.914 0.75 557.162 0.75H563.53C563.971 0.75 564.13 1.01949 564.13 1.22949V10.3301L560.23 4.87988C560.146 4.75988 559.953 4.76977 559.953 5.00977V8.94043C559.953 9.16043 559.845 9.57031 559.534 9.57031H556.993C556.854 9.57031 556.689 9.26008 556.689 9.08008V1.2998Z" fill="#FF9400"/>
</g>
</svg>
