<svg width="104" height="63" viewBox="0 0 104 63" fill="none" xmlns="http://www.w3.org/2000/svg">
<path fill-rule="evenodd" clip-rule="evenodd" d="M12.3005 62.3999H70.6305C74.1105 62.3999 76.7305 58.3797 74.7505 55.4497L45.6105 6.00977C43.4805 2.41977 39.4604 0 34.8304 0C30.2004 0 25.7304 2.69973 23.6904 6.71973L1.5105 44.21C-2.9895 52.06 3.14053 62.3999 12.3005 62.3999Z" fill="#0043FF"/>
<path fill-rule="evenodd" clip-rule="evenodd" d="M58.2197 18.2398C54.7697 12.4498 56.8198 5.00995 62.7798 1.64995C68.7198 -1.72005 76.3498 0.279874 79.7898 6.06987L102.32 44.15C105.77 49.94 103.73 57.3801 97.7598 60.75C91.8198 64.11 84.1998 62.1199 80.7498 56.3199L58.2197 18.2398Z" fill="#0043FF"/>
</svg>
