<svg width="78" height="86" viewBox="0 0 78 86" fill="none" xmlns="http://www.w3.org/2000/svg">
<path fill-rule="evenodd" clip-rule="evenodd" d="M1.58886 1.8999C11.8349 13.8099 23.0849 28.7699 24.9049 31.1899C25.0019 31.3199 25.0719 31.4097 25.1139 31.4697C26.0839 32.7497 26.8849 33.7002 27.4929 34.4302C28.8429 36.0402 29.2429 36.5097 28.4379 36.9497C27.7879 37.3097 27.1179 37.4199 26.4489 37.4199C25.6919 37.4199 24.8398 37.0698 24.2198 36.5098C23.7808 36.1098 20.7789 31.9401 16.6919 25.8701C13.5649 21.2201 10.9479 17.3698 10.8769 17.2998C10.7669 17.1998 12.5989 20.3901 16.3739 26.8501C19.9269 32.9401 22.3578 37.44 22.3578 37.73C22.3578 38.31 22.1909 38.6202 21.4369 39.4302C20.1789 40.7702 19.6169 42.2799 19.2109 45.3999C18.7559 48.8999 17.4769 51.3799 13.9329 55.6099C11.8579 58.0899 11.5179 58.54 10.9939 59.54C10.3349 60.8 10.1539 61.4998 10.0799 63.0898C10.0019 64.7698 10.1539 65.85 10.6889 67.46C11.1589 68.86 11.6479 69.7899 12.8999 71.6499C13.9799 73.2499 14.6019 74.4402 14.6019 74.9102C14.6019 75.2802 14.6759 75.2799 16.3489 74.9199C20.3549 74.0499 23.6079 72.5302 25.4369 70.6602C26.5689 69.5002 26.8349 68.8698 26.8429 67.2798C26.8489 66.2498 26.8109 66.0302 26.5189 65.4302C26.0429 64.4602 25.1759 63.6602 23.2659 62.4102C20.7639 60.7702 19.6959 59.4501 19.3999 57.6401C19.1579 56.1501 19.4389 55.0998 20.8229 52.3198C22.2559 49.4498 22.6109 48.2198 22.8509 45.3198C23.0059 43.4498 23.2209 42.7101 23.7829 42.1201C24.3689 41.5001 24.8969 41.2901 26.3469 41.1001C28.7109 40.7901 30.2169 40.2101 31.4539 39.1201C32.5279 38.1701 32.9769 37.2599 33.0459 35.8799L33.0979 34.8398L32.4979 34.1699C30.3259 31.7499 0.134852 0 0.000851937 0C-0.0281481 0 0.686865 0.849902 1.58886 1.8999ZM15.8209 64.9897C16.3129 64.1597 16.0519 63.0901 15.2299 62.5601C14.4539 62.0701 13.2479 62.2999 13.2479 62.9399C13.2479 63.1399 13.3609 63.2802 13.6169 63.4102C14.0479 63.6202 14.0789 63.8601 13.7399 64.3501C13.3969 64.8401 13.4249 65.2798 13.8179 65.5698C14.4529 66.0498 15.3509 65.7897 15.8209 64.9897ZM30.6059 19.5698C29.6369 19.4198 29.5959 19.4098 30.0519 19.3398C30.9259 19.2098 32.9899 19.39 34.4119 19.71C37.7319 20.47 40.7539 22.3998 43.9789 25.8398L44.8349 26.75L46.0608 26.5698C51.2248 25.7698 56.4778 26.4001 60.8708 28.3501C62.0798 28.8801 63.9859 29.9397 64.2239 30.2197C64.2989 30.3097 64.4389 30.8697 64.5329 31.4697C64.8599 33.5397 64.6959 35.1201 64.0349 36.3101C63.6749 36.9601 63.6549 37.16 63.8959 37.71C64.0899 38.15 64.6279 38.48 65.1619 38.48C66.2539 38.48 67.4289 36.7899 67.9739 34.4399L68.1899 33.5L68.6179 33.9697C70.9679 36.5197 72.8149 39.9897 73.1319 42.4697L73.2139 43.1099L72.8188 42.5298C72.1388 41.5198 71.4559 40.8298 70.5809 40.2798C69.0049 39.2798 67.3369 38.94 62.9209 38.71C58.9329 38.51 56.6759 38.1897 54.4379 37.4897C50.6299 36.2997 48.7109 34.7198 44.1869 29.0298C42.1779 26.5098 40.9359 25.1097 39.7009 23.9897C36.8939 21.4297 34.1359 20.0898 30.6059 19.5698ZM65.1229 25.1997C65.2239 23.5097 65.4629 22.3999 65.9449 21.3799C66.1349 20.9799 66.3139 20.6499 66.3409 20.6499C66.3689 20.6499 66.2859 20.9401 66.1569 21.3101C65.8069 22.3001 65.7499 23.6497 65.9909 25.2197C66.2969 27.2197 66.4709 27.5102 68.6749 29.6602C69.7079 30.6702 70.9109 31.95 71.3459 32.5L72.1389 33.4897L71.3459 32.7798C70.3769 31.9098 68.1489 30.2097 67.6569 29.9697C67.3259 29.8097 67.2769 29.81 67.0739 30C66.8858 30.18 66.8459 30.4497 66.8199 31.7197C66.7799 33.6997 66.4979 34.9697 65.8179 36.2397C65.4499 36.9297 65.3919 36.7798 65.7249 36.0098C65.9739 35.4298 65.9989 35.1698 65.9969 33.2598C65.9929 29.4098 65.5159 28.4799 62.7159 26.8999C62.0069 26.4899 60.8379 25.9099 60.1179 25.6099C59.3999 25.2999 58.8289 25.0298 58.8489 25.0098C58.9289 24.9398 61.6589 25.6999 62.7579 26.1099C64.3929 26.7099 64.6629 26.79 64.8609 26.71C64.9939 26.67 65.0589 26.2897 65.1229 25.1997ZM29.5669 22.25C29.3029 25.22 30.5209 29.2 32.4879 31.79C34.0139 33.8 36.3779 35.36 38.1239 35.52C39.2669 35.61 39.6099 35.2698 39.0929 34.5498C38.3749 33.5398 37.4918 31.9998 37.2588 31.3398C37.1138 30.9298 36.7979 29.7101 36.5579 28.6401C35.7369 24.9801 34.9299 23.55 33.0669 22.46C32.3879 22.07 30.9369 21.5502 30.0959 21.4102L29.6489 21.3301L29.5669 22.25ZM62.7369 51.0898C53.5419 47.5498 50.3029 44.4698 50.3029 39.2798C50.3029 38.5198 50.3309 37.8901 50.3639 37.8901C50.3979 37.8901 50.7529 38.1397 51.1539 38.4497C53.0189 39.8797 55.1069 40.4998 60.8879 41.2998C64.2889 41.7798 66.2029 42.1597 67.9689 42.7197C73.5809 44.5097 77.0539 48.1198 77.8819 53.0498C78.1219 54.4798 77.9809 57.1601 77.5909 58.5801C77.2829 59.7001 76.3429 61.71 76.0939 61.79C76.0249 61.81 75.9569 61.56 75.9389 61.21C75.8449 59.36 74.8689 57.56 73.2289 56.21C71.3649 54.68 68.8599 53.4598 62.7369 51.0898ZM55.8368 50.6997C55.9659 51.0697 56.1659 51.9098 56.2809 52.5698C57.0179 56.7598 54.7169 60.1597 50.2409 61.4697C49.7669 61.6097 47.9009 61.96 46.0939 62.25C42.4349 62.83 40.8019 63.24 39.1619 64C37.9979 64.54 36.5899 65.3399 36.6739 65.4199C36.7009 65.4499 36.9659 65.3798 37.2639 65.2798C39.3319 64.5898 41.6339 64.2298 45.1319 64.0498C46.5199 63.9898 48.0989 63.8801 48.6409 63.8101C51.7569 63.4301 53.9169 62.5301 55.5969 60.8901C56.5309 59.9801 57.0879 59.1299 57.5369 57.9399C57.8219 57.1799 57.8599 56.8898 57.8629 55.5498C57.8648 54.1798 57.8298 53.9298 57.5218 53.0898C57.1178 51.9798 56.6419 51.15 56.0389 50.5L55.6029 50.04L55.8368 50.6997ZM60.4969 59.7397C59.2749 57.2197 58.9939 54.7898 59.6629 52.5298C59.7349 52.2898 59.8499 52.0898 59.9199 52.0898C59.9889 52.0898 60.2769 52.2399 60.5599 52.4199C61.1229 52.7799 62.2519 53.39 65.2599 54.96C69.0139 56.92 71.1549 58.4402 72.6099 60.1802C73.8849 61.6902 74.6729 63.4198 75.0529 65.5298C75.2679 66.7298 75.1419 69.5998 74.8219 70.7998C73.8129 74.5898 71.4669 77.5701 68.1208 79.3101C67.6309 79.5701 67.1909 79.7698 67.1429 79.7798C67.0959 79.7798 67.2749 79.3401 67.5399 78.8101C68.6659 76.5601 68.7939 74.3702 67.9429 71.9302C67.4219 70.4302 66.3599 68.6098 64.2149 65.5298C61.7209 61.9498 61.1099 60.9997 60.4969 59.7397ZM37.4839 67.98C33.6159 68.58 29.3709 70.5398 25.9579 73.2998L24.9419 74.1201L25.8349 74.2598C30.4939 74.9498 31.7489 75.5698 34.9799 78.7598C36.8399 80.5898 37.4679 80.9999 39.0109 81.3799C41.2769 81.9299 43.5099 80.92 44.2759 78.98C44.6179 78.12 44.5729 76.68 44.1799 75.96C43.2459 74.25 40.5249 73.6997 39.2089 74.9497C38.1129 75.9997 38.4319 77.5698 39.7949 77.8398C40.1069 77.8998 40.0979 77.89 39.7159 77.73C39.1189 77.47 38.8599 77.11 38.8569 76.54C38.8489 75.2 40.4459 74.4498 41.9319 75.0898C43.0189 75.5598 43.4509 76.1798 43.4509 77.2598C43.4509 78.9098 41.9779 80.16 40.2629 79.96C39.3459 79.85 38.2249 79.2901 37.6239 78.6401C36.1119 77.0001 36.7009 74.4099 38.8129 73.4199C40.4199 72.6699 42.5569 72.8501 44.2139 73.8901C46.1179 75.0901 46.9279 76.1798 48.5679 79.7598C49.1019 80.9298 49.7888 82.2402 50.0948 82.6802C51.6478 84.9002 53.5089 86 55.7509 86C56.9879 86 57.9179 85.7797 59.0879 85.2197C59.9579 84.7997 61.1909 84.0102 61.1019 83.9302C61.0759 83.9102 60.7159 84.0099 60.2999 84.1699C57.8519 85.0799 55.3639 85.0198 53.9189 84.0098C53.0089 83.3698 52.2748 82.0998 51.8968 80.5098C51.8318 80.2298 51.6169 79.0201 51.4179 77.8101C50.9159 74.7501 50.4329 73.37 49.3089 71.79C48.1569 70.17 45.9439 68.81 43.4709 68.21C41.9269 67.83 39.1509 67.72 37.4839 67.98ZM32.0669 44.2798C32.4009 43.0998 33.4799 41.9799 34.5899 41.6499C35.2959 41.4399 36.7549 41.5702 37.4409 41.9102C38.7699 42.5602 39.7349 44.0298 39.5259 45.0898C39.2699 46.3898 37.0729 47.4297 34.5449 47.4497C33.2539 47.4497 32.7769 47.2902 32.2839 46.6602C31.9789 46.2702 31.8639 44.9998 32.0669 44.2798ZM37.1009 42.3701C37.7639 42.7601 37.9349 43.3299 37.5449 43.8599C37.2759 44.2299 36.4449 44.5698 35.8379 44.5698C34.9249 44.5698 33.9299 43.9501 33.9299 43.3901C33.9299 42.2401 35.8389 41.6301 37.1009 42.3701Z" fill="#FF44BF"/>
</svg>
